<svg id="Camada_1" data-name="Camada 1" xmlns="http://www.w3.org/2000/svg" viewBox="0 0 511.65 56.5"><defs><style>.cls-1{fill:#c97979;}.cls-2{fill:#fcb0b0;}</style></defs><rect class="cls-1" x="5.76" y="7.76" width="51.08" height="42.86" rx="18.99"/><ellipse class="cls-2" cx="27.15" cy="29.19" rx="15.91" ry="21.43"/><path class="cls-2" d="M75.72,51.55H89.27L102.73,66.3l3.93,13.91-3.93,8.88L91.19,94.41S106.66,81.32,75.72,51.55Z" transform="translate(-48.57 -43.78)"/><path d="M188.65,77l8,11.46c-3.77,0-7.14,0-10.51-.06-.48,0-1.05-.65-1.39-1.13-1.78-2.46-3.59-4.9-5.2-7.45a3,3,0,0,0-4-1.42v9.91H166V54.41h2.46c4.9,0,9.8-.07,14.7,0,6,.12,10.57,3.71,11.83,9.2a11.52,11.52,0,0,1-5.25,12.67Zm-13-13.72v6c2.19,0,4.25.08,6.29,0a3.08,3.08,0,0,0,3.24-2.91,3,3,0,0,0-3-3.08C180.07,63.15,177.94,63.28,175.67,63.28Z" transform="translate(-48.57 -43.78)"/><path d="M388.25,71.74c-.78,9.42-8,16.49-18,17a18.47,18.47,0,0,1-18.84-13.88c-2-8.29,2.85-16.91,11.39-20.17,10.63-4.05,22.57,2.17,24.93,13C388,69,388.09,70.4,388.25,71.74Zm-10.14-.6c0-4.82-4-8.94-8.62-8.88A9.11,9.11,0,0,0,361,71.1c0,4.74,4.12,8.92,8.69,8.88A8.92,8.92,0,0,0,378.11,71.14Z" transform="translate(-48.57 -43.78)"/><path d="M297.36,89.09c-10.08,0-18.57-8-18.6-17.62s8.34-17.69,18.46-17.71,18.62,8,18.7,17.58S307.41,89,297.36,89.09Zm8.5-17.62a8.57,8.57,0,1,0-17.14-.12,8.57,8.57,0,1,0,17.14.12Z" transform="translate(-48.57 -43.78)"/><path d="M495.7,71.12c-.07,8-5.88,15.07-14.22,17.13A18.9,18.9,0,0,1,460,78c-4.79-10.39,2.48-22.88,14.16-24.35,10.24-1.29,19.08,4.71,21.15,14.37A28.26,28.26,0,0,1,495.7,71.12Zm-10.11,0a8.88,8.88,0,0,0-8.42-8.86c-4.54-.06-8.69,4.19-8.67,8.88S472.61,80,477.18,80A8.82,8.82,0,0,0,485.59,71.11Z" transform="translate(-48.57 -43.78)"/><path d="M444.27,75.12H431.93v13h-9.6V54.15h9.54V66.36h12.38V54.14h9.6V88.06h-9.58Z" transform="translate(-48.57 -43.78)"/><path d="M510,79.52h17.49v8.54H500.3V54.2h27.23v8.52H510v3.67h16V75H510Z" transform="translate(-48.57 -43.78)"/><path d="M216.42,88.34V54.51c6.3,0,12.52-.38,18.66.1,6.89.55,10.91,5.9,10.5,12.88-.34,5.93-5.46,10.52-11.91,10.64-2.44.05-4.88,0-7.6,0v10.2Zm9.7-19.1c2.37,0,4.61.12,6.83,0a2.76,2.76,0,0,0,2.68-2.79,2.71,2.71,0,0,0-2.49-3,68.37,68.37,0,0,0-7-.06Z" transform="translate(-48.57 -43.78)"/><path d="M529.84,82.94l4.91-5.88c3.39,1.23,6.5,2.51,9.71,3.44a8.09,8.09,0,0,0,4.16-.2,2.89,2.89,0,0,0,1.7-2c.08-.51-.92-1.53-1.62-1.75-2.44-.8-5-1.32-7.45-2a32.78,32.78,0,0,1-3.47-1.15c-3.38-1.36-5.85-3.53-6.22-7.41-.41-4.33,1-7.9,4.7-10.31,6-3.87,17.58-2.63,22.92,2.52-1.54,2.17-3.08,4.37-4.4,6.23l-8.91-2.87a2.28,2.28,0,0,0-.77-.11c-1.54.11-3.38,0-3.74,2s1.43,2.36,2.83,2.74c2.42.67,4.89,1.13,7.3,1.81,6.15,1.74,8.81,4.68,8.73,9.52-.1,5.51-3.3,9.38-9.33,10.67a24.09,24.09,0,0,1-20.1-4.4A11.16,11.16,0,0,1,529.84,82.94Z" transform="translate(-48.57 -43.78)"/><path d="M155.09,76.89l6.77,5.89c-3,4.84-11.54,7.44-18.5,5.69A18.22,18.22,0,0,1,129.6,72c-.39-7.16,4.65-14.35,12-17s16.15-.5,20.37,5L155,66c-4.79-4.16-9.25-4.42-12.78-.85A8.86,8.86,0,0,0,142,77.48C145.55,81.26,150.07,81.09,155.09,76.89Z" transform="translate(-48.57 -43.78)"/><path d="M347.18,77.72l5.36,7c-4.66,4.81-15.86,6.1-23.65-.56a17,17,0,0,1-2.19-23.89c6.41-7.79,18.44-9.12,26-2.92l-5.58,7.22c-2.16-1.71-4.84-3.13-7.87-1.94a12,12,0,0,0-4.64,3.23A8.5,8.5,0,0,0,335,77C338,80.49,341.63,80.67,347.18,77.72Z" transform="translate(-48.57 -43.78)"/><path d="M267.41,63V88.35h-9.77V63h-9.85V54.51h29.56V63Z" transform="translate(-48.57 -43.78)"/><path d="M402.36,54.19V79.44H418V88H392.74V54.19Z" transform="translate(-48.57 -43.78)"/><path d="M200.68,54.48h9.49V88.35h-9.49Z" transform="translate(-48.57 -43.78)"/><path d="M482.23,43.78l4.35.69c-.18.93-.27,1.69-.47,2.43-1,3.81-3.92,5.42-7.7,4.24-1.23-.39-2.36-1.06-3.59-1.41-.58-.16-1.75-.07-1.88.24-.88,2.07-2.42,1.37-3.88,1.11l-1.27-.25c-.13-5.55,3.75-8.34,8.78-6.39.6.23,1.18.51,1.77.76C480.74,46.2,480.86,46.16,482.23,43.78Z" transform="translate(-48.57 -43.78)"/><path d="M108.62,77.72c-.28,4.67-1.1,9.07-3.79,13a13.77,13.77,0,0,1-11.09,6.18,64.21,64.21,0,0,1-6.48-.4,3.12,3.12,0,0,0-1.68.28c-12.33,7.87-32.29,2.74-36.44-16.33C45.68,64.53,58.48,47.51,74.65,46A30.61,30.61,0,0,1,107,68.88C107.8,71.76,108.09,74.77,108.62,77.72Zm-23,13.19a11.32,11.32,0,0,0,6.19,1.36c5.44-.64,8.88-3.72,10.22-9.08A24.79,24.79,0,0,0,101,68.49C96.74,56.67,85.13,49.77,73.16,52,60.81,54.2,52,67.69,54.88,79.85A18.66,18.66,0,0,0,76.6,94.09c7.5-1.39,13.71-8.31,14.58-16.25.06-.55.14-1.1.19-1.65s.09-1,.13-1.48A19.72,19.72,0,0,1,85.66,90.91Z" transform="translate(-48.57 -43.78)"/></svg>